inDegrees=yes
name=ik_lifting_orientations
DataType=double
version=3
OpenSimVersion=4.5-2024-01-10-34fd6af
endheader
time	pelvis_tilt	pelvis_list	pelvis_rotation	pelvis_tx	pelvis_ty	pelvis_tz	hip_flexion_r	hip_adduction_r	hip_rotation_r	knee_angle_r	knee_angle_r_beta	ankle_angle_r	subtalar_angle_r	mtp_angle_r	hip_flexion_l	hip_adduction_l	hip_rotation_l	knee_angle_l	knee_angle_l_beta	ankle_angle_l	subtalar_angle_l	mtp_angle_l	lumbar_extension	lumbar_bending	lumbar_rotation	arm_flex_r	arm_add_r	arm_rot_r	elbow_flex_r	pro_sup_r	wrist_flex_r	wrist_dev_r	arm_flex_l	arm_add_l	arm_rot_l	elbow_flex_l	pro_sup_l	wrist_flex_l	wrist_dev_l
3.16	-0.875667287044837	-1.029689354147595	-80.65483345595777	0	0.9399999998679526	0	45.14745016771191	-10.0593550131611	0	59.89600432768412	1.04538248430686	-5.015235599009104	0	0	45.14745016771191	-10.0593550131611	0	59.89600432768412	1.04538248430686	-5.015235599009104	0	0	-0.957950637337858	1.075815688760249	43.00295891019179	93.74932964515357	-27.85363154743294	49.99478447778202	46.06713116351091	1.04026695547819	0	0	0	-13.15246470251615	0	88.98187229335794	1.04026695547819	0	0
3.17	-0.7952543510005168	-0.9165667996163079	-81.36689835258363	0	0.9399999998679526	0	45.14654381115067	-10.05848637251932	0	59.89664283904421	1.045393628432405	-5.014969317560494	0	0	45.14654381115067	-10.05848637251932	0	59.89664283904421	1.045393628432405	-5.014969317560494	0	0	-0.6843819318112458	0.8671177580896408	41.07958512771663	93.34374254692104	-25.42674692475592	49.5540983618431	45.60543192159796	1.035359127942829	0	0	0	-13.15939487145116	0	88.986674831409	1.035359127942829	0	0
3.18	-0.744824444966785	-0.8541985434304286	-82.3423706014857	0	0.9399999998679526	0	45.14650452926799	-10.05843173428106	0	59.89666465920586	1.04539400926607	-5.014951084505252	0	0	45.14650452926799	-10.05843173428106	0	59.89666465920586	1.04539400926607	-5.014951084505252	0	0	-0.5601740962475757	0.750446804014794	41.09807674966687	93.0915618614337	-24.65057437708619	49.43210382196619	45.43329312639643	1.03516584576325	0	0	0	-13.1596478981912	0	88.98686396668565	1.03516584576325	0	0
3.19	-0.8272036881399076	-0.9577920675825838	-83.36594824735221	0	0.9399999998679526	0	45.14643369095254	-10.05833376431238	0	59.89670416245176	1.045394698727776	-5.014918434405351	0	0	45.14643369095254	-10.05833376431238	0	59.89670416245176	1.045394698727776	-5.014918434405351	0	0	-0.6454800489757594	0.8472124345697668	42.05701656096371	92.85772797093175	-24.97681245885455	49.35441148780833	46.27832208220688	1.034816737077054	0	0	0	-13.16010552680221	0	88.98720558519528	1.034816737077054	0	0
3.2	-1.056848330034533	-1.160528291662859	-84.37681420581117	0	0.9399999998679526	0	45.14538123802428	-10.05733666504817	0	59.89744438503612	1.045407618049071	-5.014614196881561	0	0	45.14538123802428	-10.05733666504817	0	59.89744438503612	1.045407618049071	-5.014614196881561	0	0	-0.7088020716847435	0.990392584273796	41.47896895871725	92.51645674933101	-23.73974561244262	49.13466449050462	46.53908964642415	1.029109555814342	0	0	0	-13.16817137667669	0	88.99279032825349	1.029109555814342	0	0
3.21	-0.8938241852152495	-0.978906641229549	-84.72063787931756	0	0.9399999998679526	0	45.1453357386313	-10.05727391968779	0	59.8974695946767	1.045408058040302	-5.01459333251287	0	0	45.1453357386313	-10.05727391968779	0	59.8974695946767	1.045408058040302	-5.01459333251287	0	0	-0.4301572128534845	0.7395481916644852	40.94290679409222	92.18308990006479	-22.97891028534808	49.03527808691597	46.2655700423608	1.028885488044235	0	0	0	-13.16846481506592	0	88.99300958862047	1.028885488044235	0	0
3.22	-0.7275601591801818	-0.7929116918594525	-85.05455196036777	0	0.9399999998679526	0	45.14528855893307	-10.05720921415242	0	59.89749583280396	1.045408515982012	-5.014571843945349	0	0	45.14528855893307	-10.05720921415242	0	59.89749583280396	1.045408515982012	-5.014571843945349	0	0	-0.1756767121763292	0.5029379139418226	40.42555501350586	91.9614941477933	-22.2121195812218	49.06780719041539	46.65427513453536	1.028652792700649	0	0	0	-13.16876993629698	0	88.99323729146208	1.028652792700649	0	0
3.23	-0.5013308788984361	-0.5473356900054166	-85.34156949547696	0	0.9399999998679526	0	45.14523280087087	-10.05713304332188	0	59.89752692298585	1.045409058608051	-5.014546571302467	0	0	45.14523280087087	-10.05713304332188	0	59.89752692298585	1.045409058608051	-5.014546571302467	0	0	0.2022331842715099	0.1854147503994432	40.59922188543286	91.84807403998694	-21.84622976615499	49.13778149639115	46.44186199673369	1.028377489857488	0	0	0	-13.1691312525496	0	88.99350668766114	1.028377489857488	0	0
3.24	-0.4737267313030907	-0.4879677256074173	-85.7941944808048	0	0.9399999998679526	0	45.14517828516703	-10.05705821045738	0	59.89755718666545	1.045409586808904	-5.014521724106197	0	0	45.14517828516703	-10.05705821045738	0	59.89755718666545	1.045409586808904	-5.014521724106197	0	0	0.3526461787618062	0.08472087102947215	40.84608552983347	91.62545529527254	-21.89476598053705	49.09724959398017	46.78147211212066	1.028108759128807	0	0	0	-13.16948344748218	0	88.99376965274278	1.028108759128807	0	0
3.25	-0.4063682043244483	-0.4417062962020785	-86.2426988329243	0	0.9399999998679526	0	45.14514360251988	-10.05701084200713	0	59.89757650751068	1.045409924021268	-5.014506014266183	0	0	45.14514360251988	-10.05701084200713	0	59.89757650751068	1.045409924021268	-5.014506014266183	0	0	0.5199758720017925	-0.02275658641782334	41.25330732667701	91.36102218763374	-22.06593496583192	49.09320470545233	46.95939063960476	1.027937551708388	0	0	0	-13.16970809476455	0	88.99393718689414	1.027937551708388	0	0
3.26	-0.3350373782947498	-0.3491328152480128	-86.71958017560243	0	0.9399999998679526	0	45.14510640762413	-10.05696011873913	0	59.89759723864725	1.045410285847858	-5.014489200308747	0	0	45.14510640762413	-10.05696011873913	0	59.89759723864725	1.045410285847858	-5.014489200308747	0	0	0.7543881545998529	-0.1737546273917057	41.71042508666532	91.25125921298556	-21.80948074725456	49.14960273554637	46.92886086452715	1.027753892899006	0	0	0	-13.16994912704753	0	88.99411690528991	1.027753892899006	0	0
3.27	-0.2847915801720639	-0.3100776764110331	-87.14431379156142	0	0.9399999998679526	0	45.14508235210108	-10.05692743389173	0	59.89761068299017	1.045410520495908	-5.014478374202382	0	0	45.14508235210108	-10.05692743389173	0	59.89761068299017	1.045410520495908	-5.014478374202382	0	0	0.8984918317393177	-0.2621465890958687	41.93654015090332	91.13484500472002	-21.56992339868257	49.2541258254053	46.7944215634921	1.027634983242345	0	0	0	-13.17010532742533	0	88.99423326373348	1.027634983242345	0	0
3.28	-0.3771912289181393	-0.4014448338722358	-87.86531728543343	0	0.9399999998679526	0	45.14505257597666	-10.05688684903113	0	59.89762727818798	1.04541081013675	-5.014464924494933	0	0	45.14505257597666	-10.05688684903113	0	59.89762727818798	1.04541081013675	-5.014464924494933	0	0	0.9098585980001016	-0.2086416138832745	42.32745900938331	90.91940850377675	-21.27390078868089	49.2158990832522	46.35601783237593	1.027487948907472	0	0	0	-13.17029829983723	0	88.99437714343593	1.027487948907472	0	0
3.29	-0.5270426401228478	-0.533596124802129	-88.67998186187123	0	0.9399999998679526	0	45.14501301304495	-10.05683313447821	0	59.89764938631851	1.045411195996419	-5.014447139686594	0	0	45.14501301304495	-10.05683313447821	0	59.89764938631851	1.045411195996419	-5.014447139686594	0	0	0.8211147148802042	-0.06315947319192625	43.14384114618078	90.68677883251986	-21.46958893581718	49.22509854275801	46.53230307629547	1.027292376469487	0	0	0	-13.17055520528965	0	88.99456851985708	1.027292376469487	0	0
